<svg width="50" height="65" viewBox="0 0 50 65" fill="none" xmlns="http://www.w3.org/2000/svg">
<path d="M0.0526086 36.3847C0.053899 36.3933 0.0554045 36.4016 0.0569098 36.41L1.73155 45.6137C1.95534 46.8518 2.38729 48.0093 2.99605 49.0021C3.60481 49.995 4.37511 50.7983 5.25105 51.3538L9.62067 54.0958C10.4298 54.6167 11.1116 55.4222 11.5894 56.4218C12.0673 57.4213 12.3223 58.5752 12.3256 59.7537V62.9938C12.3273 63.523 12.4883 64.0301 12.7739 64.4054C13.0595 64.7807 13.4466 64.9941 13.8517 64.9993L22.0932 64.9809C22.4913 64.9887 22.876 64.7931 23.1654 64.4357C23.4547 64.0783 23.6259 63.5875 23.6423 63.0677C23.7432 60.0656 23.661 56.4505 23.6501 55.9982C23.7855 54.1557 23.7016 52.2969 23.4013 50.4879C23.1036 48.6939 22.4046 47.056 21.3931 45.782C20.3816 44.5079 19.1032 43.6553 17.7201 43.3324C15.9604 42.9355 14.8551 41.8549 13.88 40.9018C13.7 40.7258 13.5274 40.5572 13.3596 40.4017C13.0631 40.1245 12.7203 39.9436 12.3596 39.8737C11.9989 39.8039 11.6307 39.8473 11.2854 40.0002C10.94 40.1531 10.6275 40.4111 10.3736 40.7531C10.1198 41.095 9.93179 41.511 9.82529 41.9666C9.64563 42.7032 9.59889 43.4842 9.68873 44.2484C9.68927 44.2523 9.69067 44.2557 9.69131 44.2596C9.69196 44.2635 9.69131 44.2671 9.69239 44.2708C9.71486 44.3991 10.2864 47.4319 14.0356 49.0695C14.1115 49.1027 14.1917 49.1161 14.2716 49.1088C14.3515 49.1015 14.4295 49.0737 14.5012 49.027C14.5728 48.9804 14.6368 48.9157 14.6893 48.8367C14.7418 48.7578 14.782 48.6661 14.8074 48.5668C14.8328 48.4676 14.843 48.3628 14.8374 48.2584C14.8319 48.1541 14.8106 48.0521 14.7749 47.9585C14.7391 47.8649 14.6897 47.7813 14.6292 47.7127C14.5688 47.644 14.4986 47.5916 14.4227 47.5584C11.482 46.2737 10.9359 44.1592 10.8835 43.9231C10.8395 43.421 10.8766 42.9125 10.9923 42.4302C11.0408 42.2173 11.1277 42.0227 11.2458 41.8629C11.3639 41.7031 11.5097 41.5827 11.6709 41.512C11.8344 41.4381 12.009 41.4166 12.1802 41.4495C12.3513 41.4824 12.5139 41.5686 12.6541 41.7008C12.8139 41.849 12.9782 42.0099 13.1498 42.1775C14.1813 43.1857 15.4649 44.4407 17.513 44.9031C18.6563 45.1703 19.7131 45.8753 20.5492 46.9287C21.3853 47.9821 21.963 49.3362 22.209 50.8194C22.4133 52.0757 22.5808 53.5625 22.4325 55.9146C22.4305 55.9454 22.43 55.9763 22.4308 56.0072C22.4318 56.0454 22.5297 59.8687 22.4246 62.999C22.423 63.0526 22.4133 63.1053 22.3961 63.154C22.3788 63.2027 22.3544 63.2464 22.3241 63.2827C22.2938 63.3189 22.2584 63.347 22.2197 63.3652C22.1811 63.3834 22.1401 63.3915 22.0991 63.3889L13.8577 63.4073C13.7748 63.4057 13.6956 63.3616 13.6373 63.2845C13.579 63.2075 13.5461 63.1036 13.5459 62.9952V59.7549C13.5415 58.2773 13.2216 56.8307 12.6222 55.5778C12.0228 54.3249 11.1676 53.3154 10.1529 52.6631L5.78245 49.9208C5.06938 49.468 4.44237 48.8135 3.94689 48.0048C3.45141 47.1961 3.09988 46.2535 2.9178 45.2453L1.24563 36.0552C1.17527 35.5884 1.24252 35.1041 1.4339 34.6993C1.62529 34.2945 1.92667 33.9992 2.27767 33.8725C2.62867 33.7458 3.00335 33.797 3.32665 34.016C3.64995 34.2349 3.89797 34.6054 4.02104 35.0532C4.45696 36.6268 5.00793 38.6067 5.3974 40.0044C5.7615 41.3146 6.48675 42.4001 7.43118 43.0484C7.50202 43.0971 7.57951 43.1272 7.65922 43.1368C7.73894 43.1464 7.81932 43.1354 7.89578 43.1044C7.97224 43.0734 8.04328 43.023 8.10484 42.9561C8.1664 42.8893 8.21728 42.8072 8.25458 42.7147C8.29187 42.6221 8.31485 42.5209 8.32219 42.4167C8.32954 42.3126 8.32111 42.2075 8.29739 42.1076C8.27367 42.0077 8.23513 41.9149 8.18395 41.8345C8.13278 41.7541 8.06998 41.6876 7.99914 41.6389C7.32309 41.1746 6.80393 40.3975 6.54321 39.4595C6.15407 38.0625 5.60331 36.0836 5.16772 34.5111C4.93925 33.6846 4.4799 33.0017 3.88194 32.5995C3.28398 32.1973 2.59169 32.1056 1.94412 32.3428C1.29655 32.58 0.741655 33.1286 0.390889 33.8784C0.0401224 34.6281 -0.0805363 35.5235 0.0531464 36.3847H0.0526086Z" fill="#026A50"/>
<path d="M40.3752 54.0982L44.7516 51.3519C45.6268 50.7962 46.3964 49.993 47.0046 49.0005C47.6127 48.008 48.0442 46.8511 48.2678 45.6137L49.9424 36.41C49.9439 36.4016 49.9454 36.3933 49.9467 36.3847C50.0802 35.5236 49.9594 34.6284 49.6086 33.8788C49.2578 33.1293 48.703 32.5809 48.0555 32.3437C47.408 32.1065 46.7158 32.1981 46.1179 32.6001C45.52 33.0022 45.0606 33.6848 44.832 34.5111C44.3965 36.0836 43.8458 38.0625 43.4566 39.4595C43.1959 40.3975 42.6767 41.1746 42.0006 41.6389C41.8576 41.7373 41.7503 41.9059 41.7024 42.1077C41.6545 42.3095 41.6699 42.5278 41.7452 42.7147C41.8206 42.9017 41.9496 43.0418 42.1041 43.1044C42.2585 43.167 42.4256 43.1468 42.5687 43.0484C43.5131 42.4001 44.2383 41.3146 44.6025 40.0044C44.9917 38.6067 45.5428 36.6266 45.9788 35.0533C46.1023 34.6061 46.3503 34.2364 46.6734 34.0179C46.9966 33.7995 47.3709 33.7485 47.7215 33.8751C48.0722 34.0017 48.3733 34.2966 48.5647 34.7008C48.7561 35.105 48.8237 35.5888 48.7539 36.0553L47.0816 45.2453C46.8998 46.2527 46.5488 47.1945 46.0539 48.0027C45.5591 48.8109 44.9328 49.4651 44.2205 49.9179L39.8441 52.6643C38.8303 53.317 37.9759 54.3263 37.3771 55.5788C36.7782 56.8313 36.4588 58.2772 36.4545 59.754V62.9944C36.4547 63.1013 36.423 63.2041 36.3661 63.281C36.3093 63.3578 36.2318 63.4028 36.15 63.4063L27.8936 63.3879H27.8902C27.8092 63.389 27.7312 63.3489 27.6725 63.2761C27.6137 63.2033 27.579 63.1036 27.5755 62.9979C27.4705 59.8694 27.5683 56.0445 27.5693 56.0063C27.5701 55.9754 27.5696 55.9445 27.5676 55.9137C27.4194 53.5616 27.5875 52.0748 27.7912 50.8185C28.0372 49.3354 28.6149 47.9812 29.451 46.9279C30.287 45.8745 31.3438 45.1695 32.4871 44.9022C34.5353 44.4404 35.8188 43.1854 36.8502 42.1767C37.0223 42.0091 37.1862 41.8482 37.3458 41.7C37.4861 41.5677 37.6487 41.4815 37.8199 41.4486C37.991 41.4157 38.1657 41.4372 38.3292 41.5111C38.4904 41.5819 38.6362 41.7023 38.7544 41.8622C38.8725 42.022 38.9594 42.2167 39.0079 42.4297C39.1239 42.913 39.1608 43.4229 39.1161 43.9261C39.0765 44.1014 38.5247 46.2699 35.5774 47.5575C35.4241 47.6246 35.2974 47.7685 35.2252 47.9576C35.1531 48.1468 35.1414 48.3656 35.1927 48.566C35.244 48.7664 35.3542 48.9319 35.4989 49.0262C35.6437 49.1204 35.8112 49.1357 35.9645 49.0687C39.7137 47.4304 40.2851 44.3983 40.3076 44.27C40.3082 44.2661 40.3076 44.2621 40.3088 44.2582C40.31 44.2543 40.3107 44.2512 40.3112 44.2475C40.4012 43.4834 40.3545 42.7024 40.1747 41.9658C40.0682 41.5101 39.8802 41.0941 39.6263 40.7522C39.3724 40.4102 39.0599 40.1521 38.7146 39.9992C38.3692 39.8463 38.001 39.803 37.6403 39.8728C37.2796 39.9427 36.9368 40.1237 36.6402 40.4008C36.4727 40.5564 36.3001 40.725 36.12 40.901C35.1449 41.8544 34.0395 42.9349 32.28 43.3315C30.8969 43.6545 29.6184 44.5071 28.6069 45.7812C27.5953 47.0552 26.8963 48.6933 26.5986 50.4874C26.2985 52.2963 26.2145 54.1551 26.3498 55.9976C26.3391 56.4494 26.2568 60.065 26.3577 63.0669C26.3739 63.5851 26.5438 64.0747 26.8315 64.432C27.1192 64.7894 27.502 64.9865 27.8989 64.9815L36.1554 65C36.5592 64.9927 36.9447 64.7784 37.2287 64.4033C37.5127 64.0282 37.6726 63.5224 37.6738 62.9947V59.7544C37.6769 58.5766 37.9314 57.4233 38.4086 56.4241C38.8858 55.4249 39.5669 54.6194 40.3752 54.0982Z" fill="#026A50"/>
<path d="M28.891 12.224C27.8958 9.85172 27.0699 7.36478 26.4237 4.79468C26.3244 4.3953 26.1308 4.04726 25.8708 3.80043C25.6108 3.5536 25.2977 3.42065 24.9763 3.42065C24.6549 3.42065 24.3417 3.5536 24.0817 3.80043C23.8217 4.04726 23.6282 4.3953 23.5289 4.79468C22.8831 7.3609 22.0589 9.84449 21.0665 12.2143C18.6668 17.4753 17.4119 21.3463 16.7817 23.6675C16.0506 26.3606 15.9564 29.3444 16.51 32.2961C16.9066 34.4487 17.8019 36.389 19.0736 37.8524C20.697 39.7491 22.7985 40.7977 24.9763 40.7977C27.1541 40.7977 29.2555 39.7491 30.879 37.8524C32.151 36.3889 33.0464 34.4481 33.443 32.2951C33.5048 31.9655 33.5594 31.63 33.6051 31.2976C33.6197 31.1945 33.6185 31.0886 33.6016 30.9861C33.5848 30.8836 33.5526 30.7864 33.507 30.7002C33.4613 30.6139 33.4031 30.5403 33.3356 30.4835C33.2681 30.4268 33.1927 30.388 33.1137 30.3694C33.0347 30.3508 32.9537 30.3527 32.8753 30.3751C32.7969 30.3975 32.7226 30.4399 32.6568 30.4999C32.591 30.5599 32.5348 30.6362 32.4917 30.7246C32.4485 30.813 32.4191 30.9117 32.4051 31.015C32.3637 31.3148 32.3145 31.6177 32.2586 31.9155C31.9194 33.7554 31.1539 35.4137 30.0667 36.6641C28.6667 38.2999 26.8544 39.2042 24.9763 39.2042C23.0981 39.2042 21.2859 38.2999 19.8859 36.6641C18.7986 35.4137 18.0332 33.7554 17.694 31.9155C17.1972 29.2665 17.279 26.5982 17.9306 24.1988C18.5424 21.9452 19.7648 18.1781 22.1181 13.0185C23.1581 10.5525 24.0185 7.96424 24.6881 5.28794C24.7076 5.20805 24.746 5.13832 24.7978 5.08885C24.8496 5.03937 24.9122 5.01271 24.9763 5.01271C25.0405 5.01271 25.103 5.03937 25.1549 5.08885C25.2067 5.13832 25.2451 5.20805 25.2646 5.28794C25.9351 7.96811 26.797 10.5599 27.8392 13.029C30.188 18.1785 31.4103 21.9456 32.022 24.1993C32.076 24.3984 32.1884 24.5614 32.3343 24.6523C32.4803 24.7432 32.648 24.7547 32.8004 24.6841C32.9528 24.6135 33.0775 24.4667 33.1471 24.276C33.2167 24.0853 33.2255 23.8662 33.1715 23.6671C32.5411 21.346 31.2862 17.4749 28.891 12.224Z" fill="#026A50"/>
<path d="M22.21 24.4281C20.6401 24.4281 19.3623 26.2412 19.3623 28.4695C19.3623 30.6979 20.6398 32.5108 22.21 32.5108C23.7801 32.5108 25.0578 30.6985 25.0578 28.4695C25.0578 26.2406 23.7803 24.4281 22.21 24.4281ZM22.21 30.9177C21.3121 30.9177 20.5817 29.8194 20.5817 28.4695C20.5817 27.1197 21.3121 26.0213 22.21 26.0213C23.1078 26.0213 23.8385 27.1197 23.8385 28.4695C23.8385 29.8194 23.1076 30.9177 22.21 30.9177Z" fill="#026A50"/>
<path d="M0.0195313 20.9794V24.694C0.0195312 24.7986 0.0353046 24.9022 0.0659507 24.9988C0.0965968 25.0955 0.141515 25.1833 0.198141 25.2573C0.254767 25.3313 0.32199 25.3899 0.395972 25.4299C0.469955 25.47 0.549247 25.4906 0.629321 25.4905H3.0359V28.635C3.0359 28.7396 3.05167 28.8432 3.08232 28.9399C3.11296 29.0365 3.15788 29.1244 3.21451 29.1983C3.27113 29.2723 3.33836 29.331 3.41234 29.371C3.48632 29.411 3.56561 29.4316 3.64569 29.4316H6.48818C6.56825 29.4316 6.64754 29.411 6.72151 29.371C6.79549 29.331 6.8627 29.2723 6.91932 29.1983C6.97594 29.1243 7.02085 29.0365 7.05148 28.9399C7.08212 28.8432 7.09788 28.7396 7.09786 28.635V27.6235C7.09786 27.4122 7.03363 27.2096 6.91929 27.0602C6.80495 26.9108 6.64988 26.8269 6.48818 26.8269C6.32648 26.8269 6.17141 26.9108 6.05707 27.0602C5.94273 27.2096 5.8785 27.4122 5.8785 27.6235V27.838H4.25483V24.694C4.2548 24.4827 4.19056 24.2801 4.07623 24.1307C3.9619 23.9814 3.80684 23.8974 3.64515 23.8974H1.239V21.776H3.64569C3.80738 21.7759 3.96243 21.692 4.07676 21.5426C4.1911 21.3932 4.25534 21.1906 4.25537 20.9794V17.8355H5.87904V20.9794C5.87906 21.1906 5.94331 21.3932 6.05764 21.5426C6.17197 21.692 6.32703 21.7759 6.48872 21.776H8.8954V23.8974H6.48818C6.32648 23.8974 6.17141 23.9813 6.05707 24.1307C5.94273 24.2801 5.8785 24.4827 5.8785 24.694C5.8785 24.9052 5.94273 25.1078 6.05707 25.2572C6.17141 25.4066 6.32648 25.4905 6.48818 25.4905H9.50455C9.58461 25.4906 9.6639 25.47 9.73788 25.4299C9.81185 25.3899 9.87907 25.3312 9.93569 25.2573C9.9923 25.1833 10.0372 25.0955 10.0678 24.9988C10.0985 24.9022 10.1142 24.7986 10.1142 24.694V20.9794C10.1142 20.7681 10.05 20.5655 9.93566 20.4161C9.82132 20.2667 9.66624 20.1828 9.50455 20.1828H7.09786V17.0389C7.09786 16.8276 7.03363 16.625 6.91929 16.4756C6.80495 16.3262 6.64988 16.2423 6.48818 16.2423H3.64569C3.48398 16.2423 3.32889 16.3262 3.21454 16.4756C3.10018 16.625 3.03593 16.8276 3.0359 17.0389V20.1834H0.629321C0.467687 20.1834 0.312667 20.2672 0.198324 20.4165C0.0839821 20.5657 0.0196738 20.7682 0.0195313 20.9794Z" fill="#026A50"/>
<path d="M46.3086 0H43.466C43.3043 -3.28479e-09 43.1492 0.0839207 43.0348 0.233305C42.9205 0.382689 42.8562 0.585302 42.8562 0.796582V3.94104H40.4496C40.2879 3.94104 40.1328 4.02496 40.0185 4.17435C39.9041 4.32373 39.8399 4.52635 39.8398 4.73763V8.45164C39.8398 8.66294 39.9041 8.86559 40.0184 9.015C40.1328 9.16442 40.2879 9.24836 40.4496 9.24836H42.8562V12.3927C42.8562 12.604 42.9205 12.8066 43.0348 12.956C43.1492 13.1055 43.3043 13.1894 43.466 13.1894H46.3086C46.4703 13.1894 46.6254 13.1054 46.7397 12.956C46.854 12.8066 46.9183 12.604 46.9183 12.3927V11.325C46.9183 11.1137 46.854 10.9111 46.7397 10.7617C46.6254 10.6123 46.4703 10.5284 46.3086 10.5284C46.1469 10.5284 45.9918 10.6123 45.8775 10.7617C45.7631 10.9111 45.6989 11.1137 45.6989 11.325V11.5957H44.0757V8.45164C44.0756 8.24038 44.0114 8.03779 43.8971 7.88841C43.7827 7.73903 43.6277 7.65509 43.466 7.65505H41.0593V5.53364H43.466C43.6277 5.53361 43.7827 5.44967 43.8971 5.30029C44.0114 5.15091 44.0756 4.94832 44.0757 4.73706V1.59316H45.6993V4.73763C45.6994 4.94888 45.7636 5.15147 45.878 5.30085C45.9923 5.45023 46.1473 5.53417 46.309 5.53421H48.7157V7.65562H46.3086C46.1483 7.6584 45.9953 7.74355 45.8827 7.89265C45.77 8.04175 45.7069 8.2428 45.7069 8.45227C45.7069 8.66174 45.77 8.86278 45.8827 9.01188C45.9953 9.16098 46.1483 9.24614 46.3086 9.24892H49.325C49.4867 9.24888 49.6417 9.16493 49.7561 9.01552C49.8704 8.86611 49.9346 8.66348 49.9346 8.4522V4.73763C49.9346 4.52637 49.8704 4.32378 49.756 4.1744C49.6417 4.02502 49.4866 3.94108 49.325 3.94104H46.9183V0.796582C46.9182 0.585326 46.854 0.382735 46.7397 0.233355C46.6253 0.0839746 46.4703 3.72486e-05 46.3086 0Z" fill="#026A50"/>
<path d="M32.9155 26.7557C32.879 26.7756 32.8438 26.7996 32.8104 26.8273C32.7774 26.8572 32.7463 26.8905 32.7173 26.9269C32.6032 27.0765 32.5391 27.2792 32.5391 27.4905C32.5391 27.7018 32.6032 27.9044 32.7173 28.0541C32.7462 28.0905 32.7773 28.1238 32.8104 28.1537C32.8438 28.1815 32.879 28.2054 32.9155 28.2253C32.9523 28.2457 32.9907 28.2611 33.0299 28.2711C33.1184 28.2943 33.2096 28.2915 33.2971 28.263C33.3846 28.2345 33.4662 28.181 33.5359 28.1063C33.6057 28.0316 33.6619 27.9376 33.7005 27.8311C33.739 27.7247 33.7591 27.6083 33.7591 27.4905C33.7591 27.3727 33.739 27.2563 33.7005 27.1498C33.6619 27.0433 33.6057 26.9494 33.5359 26.8747C33.4662 26.8 33.3846 26.7465 33.2971 26.718C33.2096 26.6895 33.1184 26.6867 33.0299 26.7099C32.9907 26.72 32.9524 26.7353 32.9155 26.7557Z" fill="#026A50"/>
</svg>
