<svg width="50" height="65" viewBox="0 0 50 65" fill="none" xmlns="http://www.w3.org/2000/svg">
<path d="M45.0564 50.6755L45.0558 50.6751C44.6233 50.409 44.1573 50.261 43.6858 50.2359C43.2143 50.2109 42.7418 50.309 42.2959 50.5272L42.2949 50.5277L36.5737 53.2974L45.0564 50.6755ZM45.0564 50.6755C45.6909 51.063 46.2327 51.6885 46.6064 52.4835C46.98 53.2783 47.166 54.2014 47.138 55.1372C47.11 56.073 46.8694 56.9737 46.4503 57.7272C46.0314 58.4805 45.4562 59.0479 44.8037 59.3698C44.8034 59.3699 44.8031 59.3701 44.8028 59.3702L35.7434 63.7678L35.742 63.7685C34.4242 64.4184 33.0279 64.7502 31.6216 64.75H31.6216M45.0564 50.6755L31.6216 64.75M31.7483 53.741L31.7478 53.7409L30.7844 53.4639L30.4857 53.378L30.6337 53.1046C31.108 52.2284 31.331 51.1585 31.2579 50.0835C31.1847 49.0085 30.8208 48.0089 30.2394 47.2579L31.7483 53.741ZM31.7483 53.741C33.3575 54.2 35.0354 54.0446 36.5734 53.2976L31.7483 53.741ZM31.6216 64.75H23.6418M31.6216 64.75H23.6418M31.6148 62.7822C32.8649 62.7839 34.1029 62.4899 35.2665 61.9172L44.327 57.4686L44.3357 57.4644L44.3441 57.4594C44.8442 57.1638 45.2232 56.6449 45.4211 56.0235C45.6193 55.4013 45.6269 54.7078 45.4427 54.0793C45.2586 53.4514 44.8919 52.9201 44.3998 52.6072C43.9035 52.2915 43.3236 52.2273 42.7854 52.4367L42.7769 52.44L42.7687 52.4439L37.0471 55.1634L37.0453 55.1643C35.2613 56.03 33.3254 56.207 31.4688 55.6776L31.4685 55.6775L28.986 54.9736C28.9312 54.9558 28.8765 54.9285 28.8236 54.8912L28.7211 54.8188L28.6018 54.8578C28.0388 55.0418 27.4497 55.0326 26.8897 54.8305C26.3285 54.628 25.8097 54.2362 25.3894 53.6848L25.3881 53.6832L21.7066 48.9359C21.5705 48.7458 21.4906 48.4854 21.4944 48.2084C21.4982 47.9299 21.5861 47.6729 21.7278 47.4902C21.8685 47.3087 22.0435 47.2221 22.2091 47.2183C22.3733 47.2146 22.5478 47.2918 22.6915 47.4629L26.3729 52.2101L26.3729 52.2102L26.3766 52.2148C26.7515 52.675 27.2641 52.948 27.8137 52.948C28.3634 52.948 28.8759 52.6751 29.2508 52.2148L29.2509 52.2149L29.255 52.2095C29.621 51.7345 29.8196 51.1029 29.8196 50.4537C29.8196 49.8046 29.621 49.1729 29.255 48.698L29.2545 48.6973L24.8287 42.9901C24.8286 42.9901 24.8286 42.99 24.8285 42.99C24.0568 41.9901 23.1356 41.193 22.1159 40.6489C21.0958 40.1045 19.9989 39.8249 18.8891 39.8291H6.86719H6.61719V40.0791V54.3736V54.5955L6.83749 54.6218C8.27211 54.7934 9.34983 54.9704 10.1465 55.1612C10.9489 55.3534 11.4418 55.5542 11.7264 55.7598L11.7272 55.7603L19.7074 61.4764L19.7078 61.4767C20.9044 62.3304 22.2559 62.7823 23.6348 62.7822H31.6148ZM31.6148 62.7822L31.6151 62.5322M31.6148 62.7822H31.6151V62.5322M31.6151 62.5322C32.8253 62.5339 34.0255 62.2494 35.1561 61.6929L19.853 61.2732C21.0106 62.0991 22.3119 62.5323 23.6348 62.5322H31.6151ZM23.6418 64.75C22.0466 64.7471 20.473 64.2229 19.0677 63.2187L23.6418 64.75ZM25.8131 41.5502L30.2393 47.2577L19.0675 63.2186L11.0809 57.5026L11.0811 57.5023L11.0709 57.4958C10.9222 57.3999 10.6262 57.2789 10.0115 57.1341C9.38953 56.9876 8.42 56.8121 6.9054 56.6185L6.6237 56.5825V56.8665V58.8054C6.6237 59.0908 6.53529 59.3554 6.39016 59.5425C6.24617 59.7282 6.06648 59.8145 5.89732 59.8145H0.976377C0.80722 59.8145 0.627525 59.7282 0.483532 59.5425C0.338407 59.3554 0.25 59.0908 0.25 58.8054V35.5214C0.25 35.2361 0.338407 34.9714 0.483531 34.7843C0.627525 34.5986 0.80722 34.5123 0.976377 34.5123H5.89081C6.05997 34.5123 6.23966 34.5986 6.38366 34.7843L6.58121 34.6311L6.38366 34.7843C6.52878 34.9714 6.61719 35.2361 6.61719 35.5214V37.561V37.811H6.86719H18.8896H18.8897C20.1711 37.8106 21.4422 38.1382 22.63 38.778C23.8182 39.4181 24.9006 40.3586 25.8122 41.549L25.8131 41.5502ZM4.91443 57.7964H5.16443V57.5464V36.7804V36.5304H4.91443H1.94625H1.69625V36.7804V57.5464V57.7964H1.94625H4.91443Z" fill="#026A50" stroke="#026A50" stroke-width="0.5"/>
<path d="M12.1814 35.7152C12.2859 36.0213 12.4803 36.2614 12.722 36.3826C12.9637 36.5038 13.2329 36.4962 13.4702 36.3616C13.7076 36.2269 13.8938 35.9761 13.9878 35.6644C14.0818 35.3528 14.0759 35.0057 13.9714 34.6996C13.8543 34.3639 13.7501 34.0281 13.6525 33.684C15.1507 32.94 16.4115 31.5684 17.2325 29.7893C17.9458 30.2745 18.7401 30.528 19.5466 30.528C20.353 30.528 21.1473 30.2745 21.8606 29.7893C22.6749 29.1617 23.3493 28.2729 23.8181 27.2094C24.2869 26.1459 24.5342 24.944 24.5358 23.7207C24.5358 21.6391 23.4879 20.2877 22.5831 19.0958C21.6783 17.9039 20.7084 16.6868 20.8386 14.6723C20.9688 12.6579 20.0705 10.4755 18.235 8.59533C21.5074 4.66585 25.8184 2.49266 30.29 2.51832C30.7586 2.51832 31.2338 2.51832 31.709 2.59387C31.058 4.46565 30.9018 6.05205 31.2468 7.30271C31.5796 8.43491 32.0166 9.51142 32.5486 10.5091C33.3948 12.1878 33.7073 12.9516 33.4079 13.8162C33.1931 14.4289 32.3534 15.0333 31.5462 15.6124C30.0361 16.6952 27.9597 18.1725 27.9597 21.3621C27.9274 22.654 28.1669 23.933 28.6528 25.0635C29.1387 26.194 29.8529 27.1338 30.7196 27.7832C31.3015 28.1788 31.9493 28.3862 32.6072 28.3876C33.6325 28.3562 34.6246 27.9132 35.4452 27.1201C38.6543 24.2075 39.8519 24.0732 40.9455 24.8371C42.039 25.6009 45.1114 26.1465 48.0405 25.7436C48.0092 30.4132 46.8562 34.9555 44.7403 38.7454C42.7876 36.5966 41.2579 35.6565 40.0472 35.8663C38.9511 36.1124 37.8908 36.5738 36.9033 37.2345C35.66 37.9815 34.8529 38.418 34.0067 38.0739C32.4522 37.5786 30.8112 37.8229 29.3852 38.7621C29.153 38.9102 28.9759 39.1711 28.8929 39.4875C28.8099 39.8039 28.8278 40.1499 28.9426 40.4493C29.0574 40.7487 29.2597 40.977 29.5051 41.0841C29.7504 41.1911 30.0187 41.1681 30.2509 41.02C31.2318 40.3716 32.3566 40.1818 33.4339 40.4828C35.0286 41.1124 36.3956 40.2982 37.7169 39.5092C38.5349 38.9569 39.4126 38.5664 40.3206 38.3509C40.4898 38.3509 41.3881 38.3509 43.5231 40.7011C40.9344 44.4723 37.4513 47.0338 33.6161 47.9868C33.3572 48.0179 33.1185 48.1805 32.9524 48.4386C32.7864 48.6968 32.7067 49.0294 32.7309 49.3633C32.7551 49.6973 32.8811 50.0051 33.0813 50.2192C33.2815 50.4333 33.5395 50.536 33.7984 50.5049H33.9807C38.4908 49.3782 42.5562 46.2623 45.4792 41.6921C48.4022 37.1219 50.0005 31.3822 49.9998 25.4582C49.9998 25.0385 49.9998 24.6188 49.9998 24.2327C49.7738 18.3851 47.9952 12.8155 44.9623 8.45836C41.9295 4.1012 37.8269 1.22152 33.3428 0.302397H33.3037C32.2957 0.101639 31.2773 0.000620509 30.2574 0.000225321C27.596 -0.0142926 24.9603 0.672901 22.5123 2.01961C20.0643 3.36631 17.8556 5.3441 16.0218 7.83151C13.3109 11.4653 11.4985 16.056 10.8147 21.0206C10.131 25.9852 10.6067 31.0999 12.1814 35.7152ZM47.9429 23.2171C45.3392 23.6032 42.6574 23.1583 41.8698 22.6044C39.572 20.9928 37.3589 22.277 34.3126 25.0385C33.9471 25.4448 33.4986 25.7067 33.0208 25.7931C32.5429 25.8794 32.0558 25.7865 31.6178 25.5253C31.0708 25.0832 30.6247 24.4617 30.3251 23.7243C30.0254 22.9869 29.883 22.1601 29.9124 21.3285C29.9124 19.7421 30.8888 18.9363 32.5161 17.7864C33.6096 17.0058 34.7357 16.2 35.2109 14.8234C35.979 12.6243 35.0417 10.7609 34.2085 9.11574C33.7533 8.28599 33.3753 7.39011 33.0824 6.44656C32.8806 5.7247 33.1215 4.47405 33.7333 2.95479C37.4712 3.92758 40.8686 6.42071 43.4262 10.0678C45.9839 13.715 47.567 18.3238 47.9429 23.2171ZM16.842 10.4C17.9355 11.4911 18.9705 12.9181 18.8729 14.4625C18.6646 17.6437 20.064 19.4315 21.1836 20.8753C22.0558 21.9916 22.5831 22.7303 22.5831 23.7123C22.5824 24.4875 22.4285 25.2497 22.1358 25.9268C21.843 26.6039 21.4212 27.1735 20.9102 27.5818C19.9273 28.2869 18.7036 28.1022 17.3692 27.0362C17.2526 26.9436 17.1222 26.8836 16.9865 26.8602C16.8508 26.8368 16.7127 26.8505 16.5814 26.9004C16.45 26.9502 16.3282 27.0352 16.224 27.1497C16.1197 27.2642 16.0353 27.4057 15.9763 27.565C15.9763 27.565 14.8241 30.6035 13.0536 31.2834C12.3099 27.6687 12.2664 23.8736 12.927 20.2321C13.5875 16.5906 14.932 13.2142 16.842 10.4Z" fill="#026A50"/>
</svg>
