<svg width="50" height="65" viewBox="0 0 50 65" fill="none" xmlns="http://www.w3.org/2000/svg">
<path d="M10.2671 27.4617C9.21075 26.0999 8.16505 25.5771 7.16088 25.9093C6.70272 26.0609 6.31221 26.3755 5.98402 26.7674V13.492C5.98402 7.92096 2.55491 6.44897 0.741845 6.44897L0 7.4058V44.5307L0.125817 45.0635L6.03387 56.4314V64.9992H7.51756V56.1413L7.39175 55.6085L1.48369 44.2406V8.47362C2.58103 8.76067 4.50033 9.79175 4.50033 13.492V30.2426L4.50567 30.2434C4.50567 30.3544 4.51517 30.4669 4.54662 30.5764L8.47247 44.1633C8.58345 44.5483 8.86654 44.7864 9.16743 44.7864C9.25348 44.7864 9.34072 44.7673 9.42678 44.7259C9.81076 44.5422 10.006 43.9903 9.86298 43.4958L6.02913 30.2258C6.25168 29.4481 6.80064 28.0021 7.53121 27.7633C8.10748 27.5765 8.76624 28.2317 9.21906 28.8158C10.9663 31.0693 12.3864 33.7813 13.6915 36.3655C17.377 43.6665 17.8892 48.6206 15.3022 51.9572L15.0838 52.6324V65H16.5675V53.0174C20.8464 47.0323 16.4078 38.2402 14.9336 35.3207C13.5865 32.6508 12.1158 29.8453 10.2671 27.4617Z" fill="#026A50"/>
<path d="M49.2583 6.44995C47.4446 6.44995 44.0155 7.92193 44.0155 13.493V26.7676C43.6867 26.3756 43.2962 26.061 42.8387 25.9095C41.8351 25.5788 40.7882 26.0993 39.7324 27.4618C37.8855 29.844 36.4143 32.6501 35.0659 35.3208C33.5917 38.2403 29.1537 47.0316 33.4321 53.0175V65H34.9158V52.6325L34.6986 51.9558C32.1122 48.6192 32.6238 43.6651 36.3098 36.3649C37.6149 33.7792 39.0363 31.0664 40.7817 28.8144C41.2339 28.2304 41.8915 27.5713 42.4695 27.7619C43.2001 28.0015 43.7497 29.4497 43.9716 30.2251L40.1372 43.4944C39.9941 43.9889 40.1894 44.5408 40.5728 44.7245C40.6576 44.7674 40.7449 44.7865 40.8315 44.7865C41.1324 44.7865 41.4149 44.5484 41.5265 44.1642L45.4523 30.5773C45.4844 30.467 45.4933 30.3545 45.4933 30.2443L45.4992 30.2428V13.4922C45.4992 9.77435 47.4066 8.75016 48.5164 8.46847V44.24L42.6078 55.6078L42.482 56.1406V64.9992H43.9657V56.4322L49.8743 45.0644L50.0001 44.5316V7.40678L49.2583 6.44995Z" fill="#026A50"/>
<path d="M39.2443 18.5311C39.2443 8.31293 32.7992 0 24.8763 0C16.9539 0 10.5088 8.31293 10.5088 18.5311C10.5088 28.7493 16.9539 37.0614 24.8763 37.0614C32.7992 37.0614 39.2443 28.7485 39.2443 18.5311ZM12.015 19.4879H15.456C15.77 20.2809 16.1688 21.0655 16.6786 21.8004C16.6821 21.8057 16.6863 21.8103 16.6904 21.8157C16.8495 23.8266 17.148 25.7088 17.5634 27.4196H13.9984C12.8548 25.0995 12.1438 22.3936 12.015 19.4879ZM37.7381 17.5743H34.8965C35.5766 14.7765 35.3843 12.3163 35.3713 12.164L35.2977 11.3135H34.6342C33.9102 11.3135 33.2312 11.3809 32.5772 11.4842C32.4704 10.8979 32.3564 10.3253 32.2265 9.77572H35.8211C36.9256 12.0652 37.6117 14.7244 37.7381 17.5743ZM31.9677 20.5244C30.5588 22.5567 28.4252 23.662 25.6199 23.8158C25.6187 23.7424 25.6187 23.6612 25.6187 23.5793C25.6187 23.528 25.6199 23.4821 25.6193 23.4285C25.6323 21.8034 25.8988 18.884 27.4436 16.6021C28.8466 14.5292 31.0247 13.4025 33.9226 13.2463C33.9191 14.7811 33.6876 18.0443 31.9677 20.5244ZM31.1149 11.8134C29.1161 12.425 27.5077 13.5984 26.3261 15.3429C26.0567 15.7417 25.827 16.1559 25.6187 16.5761V9.77572H30.6644C30.8318 10.4248 30.9831 11.1038 31.1149 11.8134ZM25.6181 7.86207V2.02618C27.3635 2.50306 28.9629 4.63258 30.0876 7.86207H25.6181ZM24.1344 2.02618V7.86207H19.6643C20.7896 4.63258 22.3884 2.50306 24.1344 2.02618ZM24.1344 9.77572V16.5761C23.9255 16.1559 23.6964 15.741 23.4264 15.3429C22.2448 13.5977 20.6365 12.425 18.6376 11.8134C18.7688 11.1038 18.9201 10.4256 19.0881 9.77572H24.1344ZM17.7931 20.5366C16.0744 18.068 15.8388 14.7872 15.8323 13.2463C18.7237 13.4025 20.897 14.5247 22.3006 16.5891C23.9754 19.0524 24.1516 22.2987 24.1308 23.8158C21.3314 23.6612 19.2014 22.5605 17.7931 20.5366ZM17.1753 11.4842C16.5213 11.3809 15.8424 11.3135 15.1189 11.3135H14.4554L14.3812 12.164C14.3682 12.3163 14.1753 14.7765 14.856 17.5743H12.0144C12.1403 14.7244 12.8263 12.066 13.9314 9.77572H17.5249C17.3961 10.3253 17.2815 10.8987 17.1753 11.4842ZM18.3848 23.6528C19.9142 24.9127 21.84 25.5994 24.1344 25.7157V27.4196H19.1278C18.8186 26.2538 18.5676 24.9924 18.3848 23.6528ZM24.1344 29.3325V35.0352C22.4044 34.5599 20.8311 32.4541 19.716 29.3325H24.1344ZM25.6181 35.0352V29.3325H30.0365C28.9214 32.4541 27.3481 34.5599 25.6181 35.0352ZM25.6181 27.4189V25.715C27.9125 25.5986 29.8383 24.912 31.3677 23.652C31.1849 24.9916 30.9339 26.2538 30.6241 27.4189H25.6181ZM33.0633 21.8134C33.0668 21.8088 33.0704 21.805 33.0739 21.7996C33.5831 21.0648 33.9826 20.2802 34.2965 19.4872H37.7387C37.6099 22.3928 36.8983 25.0988 35.7547 27.4181H32.1897C32.6051 25.7081 32.9036 23.825 33.0633 21.8134ZM34.7446 7.86207H31.7024C31.0989 5.91703 30.341 4.27894 29.468 3.00827C31.5339 4.02786 33.3458 5.71341 34.7446 7.86207ZM20.2845 3.00827C19.4115 4.27894 18.6537 5.91779 18.0501 7.86207H15.0085C16.4068 5.71341 18.2186 4.02863 20.2845 3.00827ZM15.0975 29.3325H18.0982C18.7017 31.2194 19.4608 32.8223 20.3308 34.0769C18.2893 33.081 16.4946 31.433 15.0975 29.3325ZM29.4211 34.0769C30.2917 32.8223 31.0502 31.2194 31.6544 29.3325H34.655C33.2579 31.4337 31.4638 33.081 29.4211 34.0769Z" fill="#026A50"/>
</svg>
